<?xml version="1.0" encoding="UTF-8"?>
<svg version="1.1" xmlns="http://www.w3.org/2000/svg" width="82" height="51"> 
<path d="M0 0 C1351.68 0 2703.36 0 4096 0 C4096 834.24 4096 1668.48 4096 2528 C2744.32 2528 1392.64 2528 0 2528 C0 1693.76 0 859.52 0 0 Z " fill="#FEFEFE" transform="translate(0,0)"/>
<path d="M0 0 C4.34022084 4.83295123 7.10330147 10.4892749 10.125 16.1875 C11.29613109 18.37279467 12.46801146 20.55768795 13.640625 22.7421875 C14.50204102 24.3504541 14.50204102 24.3504541 15.38085938 25.99121094 C17.51167317 29.95082329 19.6836606 33.88613813 21.875 37.8125 C22.2661499 38.51407227 22.6572998 39.21564453 23.06030273 39.93847656 C23.90105905 41.44580993 24.74213714 42.95296386 25.58349609 44.45996094 C28.4584569 49.6152681 31.32173746 54.777076 34.1875 59.9375 C35.48431888 62.27216662 36.78117716 64.60681128 38.078125 66.94140625 C38.40337662 67.52689743 38.72862823 68.11238861 39.06373596 68.71562195 C41.28617834 72.71597691 43.51001002 76.7155574 45.734375 80.71484375 C52.51467878 92.90794248 59.27408222 105.11222708 66.00897217 117.33044434 C72.69253271 129.45448871 79.41190294 141.5584569 86.14111328 153.65722656 C89.26258349 159.2704614 92.38113731 164.88531608 95.5 170.5 C96.73696533 172.72657019 97.97394453 174.95313267 99.2109375 177.1796875 C114.7578125 205.1640625 114.7578125 205.1640625 116.42285156 208.16894531 C117.4523903 210.01701515 118.490442 211.8603754 119.53808594 213.69824219 C120.22692871 214.91108887 120.22692871 214.91108887 120.9296875 216.1484375 C121.33171387 216.84888184 121.73374023 217.54932617 122.14794922 218.27099609 C123 220 123 220 123 222 C128.24645901 217.59537969 133.1291383 212.91659155 137.93969727 208.04077148 C140.46132911 205.49832479 143.01317608 203.05845148 145.75 200.75 C150.77778128 196.49005979 155.31307023 191.70360095 159.89746094 186.97753906 C160.5268457 186.33655273 161.15623047 185.69556641 161.8046875 185.03515625 C162.65522705 184.15935913 162.65522705 184.15935913 163.52294922 183.26586914 C165 182 165 182 167 182 C168.47363281 184.02172852 168.47363281 184.02172852 170.203125 186.87890625 C171.16835083 188.46119019 171.16835083 188.46119019 172.15307617 190.07543945 C172.85216314 191.2377254 173.55113482 192.40008069 174.25 193.5625 C174.97238303 194.75195954 175.69545394 195.94100157 176.41918945 197.12963867 C178.2679189 200.16920287 180.10864926 203.21352826 181.9475708 206.2590332 C184.11242661 209.8402167 186.29088417 213.41313155 188.46728516 216.98730469 C189.62013093 218.88068126 190.77214076 220.77456707 191.92333984 222.66894531 C196.23701857 229.76418198 200.59499538 236.83100676 204.97216797 243.88720703 C209.26713348 250.81153262 213.54349509 257.74714074 217.8125 264.6875 C218.48394043 265.77909424 219.15538086 266.87068848 219.84716797 267.99536133 C221.21540332 270.22000824 222.58356704 272.44469921 223.95166016 274.66943359 C227.29993688 280.11367567 230.65002462 285.55680305 234 291 C238.03608633 297.55802216 242.07174186 304.1163075 246.10546875 310.67578125 C252.2244565 320.62497507 258.3474381 330.57152516 264.5 340.5 C271.34209481 351.54118371 278.14751989 362.60483237 284.95166016 373.66943359 C288.29993688 379.11367568 291.65004759 384.5567889 295 390 C296.33334242 392.16666108 297.66667574 394.33332775 299 396.5 C299.66 397.5725 300.32 398.645 301 399.75 C312 417.625 312 417.625 323 435.5 C323.66016113 436.5727417 324.32032227 437.6454834 325.00048828 438.75073242 C326.33226668 440.91491297 327.66397254 443.07913815 328.99560547 445.2434082 C332.35213255 450.69848297 335.70996186 456.15274836 339.0703125 461.60546875 C345.46938506 471.99175629 351.85368857 482.38626217 358.1875 492.8125 C363.07752591 500.86141126 368.00759252 508.88408677 372.97216797 516.88720703 C377.26713348 523.81153262 381.54349509 530.74714074 385.8125 537.6875 C386.48394043 538.77909424 387.15538086 539.87068848 387.84716797 540.99536133 C389.21540332 543.22000824 390.58356704 545.44469921 391.95166016 547.66943359 C395.29993688 553.11367568 398.65004759 558.5567889 402 564 C403.33334242 566.16666108 404.66667574 568.33332775 406 570.5 C406.66 571.5725 407.32 572.645 408 573.75 C414 583.5 414 583.5 416.00317383 586.75537109 C417.32567306 588.90429087 418.64842361 591.053056 419.97143555 593.20166016 C423.09675935 598.27794835 426.21948906 603.3557798 429.33328247 608.43914795 C430.80428114 610.84025178 432.27671801 613.24047208 433.74926758 615.640625 C434.78802588 617.33507712 435.8247024 619.03080488 436.86132812 620.7265625 C437.49103516 621.75265625 438.12074219 622.77875 438.76953125 623.8359375 C439.59868042 625.19017822 439.59868042 625.19017822 440.44458008 626.57177734 C441.95562368 629.01011083 441.95562368 629.01011083 443.7019043 631.19775391 C445 633 445 633 445 635 C134.14 635 -176.72 635 -497 635 C-494.78406837 630.56813675 -492.29900328 626.37074627 -489.75 622.125 C-489.22059814 621.24295898 -488.69119629 620.36091797 -488.14575195 619.45214844 C-483.68417172 612.05893304 -479.07698657 604.76509756 -474.42260742 597.4921875 C-470.09443 590.72863539 -465.81334503 583.93741475 -461.5625 577.125 C-460.62893677 575.62888184 -460.62893677 575.62888184 -459.67651367 574.10253906 C-458.41448094 572.07924663 -457.15268121 570.05580884 -455.89111328 568.03222656 C-452.76456576 563.01909459 -449.63199839 558.00972757 -446.5 553 C-445.24997074 551.00001829 -443.99997074 549.00001828 -442.75 547 C-420.24999999 510.99999999 -420.24999999 510.99999999 -418.37451172 507.99926758 C-417.12608079 506.00174557 -415.87770827 504.00418705 -414.62939453 502.0065918 C-411.48086882 496.96837566 -408.33129107 491.93082272 -405.1796875 486.89453125 C-399.26596504 477.44226993 -393.36223489 467.98429715 -387.5 458.5 C-381.00572223 447.99314361 -374.45957493 437.51905273 -367.90722656 427.04833984 C-364.76958437 422.03341404 -361.63492867 417.01662235 -358.5 412 C-357.25001463 409.99999085 -356.00001463 407.99999086 -354.75 406 C-354.13125 405.01 -353.5125 404.02 -352.875 403 C-351 400 -349.125 397 -347.25 394 C-346.32151245 392.51439575 -346.32151245 392.51439575 -345.37426758 390.9987793 C-344.12676753 389.00281172 -342.87920912 387.00688061 -341.6315918 385.01098633 C-338.46785818 379.94959084 -335.30520439 374.88752606 -332.14453125 369.82421875 C-325.97142253 359.93720722 -319.78374244 350.06015109 -313.55126953 340.21044922 C-307.6375846 330.85743274 -301.78295976 321.4675087 -295.92333984 312.08056641 C-292.78410777 307.05253513 -289.64192849 302.02634659 -286.5 297 C-285.24998536 295.00000915 -283.99998538 293.00000914 -282.75 291 C-260.25 255 -260.25 255 -258.37231445 251.99584961 C-257.13109046 250.00979411 -255.89004028 248.02362998 -254.64916992 246.03735352 C-251.39136522 240.82306634 -248.12993882 235.61109008 -244.86328125 230.40234375 C-244.18523437 229.32017578 -243.5071875 228.23800781 -242.80859375 227.12304688 C-241.51414021 225.05724088 -240.21863142 222.99209558 -238.921875 220.92773438 C-235.83989965 216.00673418 -232.83310145 211.06865048 -230 206 C-225.74634586 206.48268416 -223.36992885 209.15514896 -220.4375 212 C-216.58803503 215.63747057 -212.70373848 219.12815254 -208.5625 222.4375 C-203.78458662 226.28045479 -199.31005016 230.36831329 -194.83837891 234.55615234 C-190.62570895 238.47906854 -186.23586445 242.11911024 -181.74609375 245.72265625 C-178.20321701 248.66077451 -174.84558228 251.78231178 -171.47802734 254.91650391 C-168.26683127 257.88730066 -164.97363159 260.69968321 -161.5625 263.4375 C-156.57435865 267.44401004 -151.8889543 271.71480092 -147.23852539 276.10327148 C-144.35544949 278.87424993 -144.35544949 278.87424993 -141 281 C-140.74524902 280.16550827 -140.49049805 279.33101654 -140.22802734 278.47123718 C-138.87449086 274.64522614 -137.17465876 271.07642228 -135.3515625 267.46020508 C-134.98694412 266.72906998 -134.62232574 265.99793488 -134.24665833 265.24464417 C-133.04333507 262.83430304 -131.8342834 260.42688694 -130.625 258.01953125 C-129.77713251 256.32499074 -128.92956278 254.63030122 -128.08227539 252.93547058 C-126.30260405 249.37769144 -124.52025849 245.82126956 -122.73583984 242.26586914 C-120.47737152 237.76574541 -118.2240349 233.26307829 -115.97259521 228.7594347 C-114.21868372 225.25188754 -112.46266488 221.74539873 -110.70599365 218.23923302 C-109.87646696 216.58330911 -109.04738753 214.92716105 -108.21881104 213.27076149 C-103.95544936 204.7521427 -99.63595356 196.27062914 -95.17382812 187.85424805 C-89.76068062 177.63264243 -84.58944309 167.2940301 -79.43296814 156.94110107 C-77.73436165 153.53086377 -76.03307654 150.12197377 -74.33117676 146.71337891 C-70.71850104 139.47672398 -67.10897711 132.23849999 -63.5 125 C-59.31042654 116.597002 -55.11942237 108.19472419 -50.92503357 99.79412842 C-49.26739329 96.47247363 -47.61220893 93.14960334 -45.95715332 89.82666016 C-40.87824025 79.64452604 -35.73424018 69.50679714 -30.40599155 59.45269966 C-26.9616002 52.95110468 -23.6405165 46.39631987 -20.37109375 39.8046875 C-19.53022972 38.11727951 -19.53022972 38.11727951 -18.67237854 36.39578247 C-16.92540367 32.88985386 -15.18111168 29.3826023 -13.4375 25.875 C-11.1052975 21.18368071 -8.77015445 16.4938383 -6.43359375 11.8046875 C-5.90140732 10.7320163 -5.36922089 9.65934509 -4.82090759 8.5541687 C-4.33272049 7.57449127 -3.84453339 6.59481384 -3.34155273 5.58544922 C-2.91204819 4.72120331 -2.48254364 3.8569574 -2.0400238 2.96652222 C-1 1 -1 1 0 0 Z " fill="#334D88" transform="translate(2074,629)"/>
<path d="M0 0 C4.81545957 3.4145986 9.12265916 6.98502875 13.23046875 11.22265625 C15.65251053 13.65539137 18.23381391 15.8757853 20.83203125 18.1171875 C23.24842951 20.2157532 25.62529024 22.354397 28 24.5 C30.98062721 27.18983431 33.97245233 29.86310364 37 32.5 C40.89512811 35.89253093 44.72782763 39.35194201 48.5625 42.8125 C50.69417481 44.72554149 52.8401911 46.61887612 55 48.5 C58.89512811 51.89253093 62.72782763 55.35194201 66.5625 58.8125 C68.69417481 60.72554149 70.8401911 62.61887612 73 64.5 C76.89512811 67.89253093 80.72782763 71.35194201 84.5625 74.8125 C86.69417481 76.72554149 88.8401911 78.61887612 91 80.5 C94.02754767 83.13689636 97.01937279 85.81016569 100 88.5 C101.66641247 90.00028239 103.33306939 91.50029332 105 93 C105.72703125 93.65613281 106.4540625 94.31226563 107.203125 94.98828125 C107.87859375 95.59027344 108.5540625 96.19226563 109.25 96.8125 C109.83265625 97.33457031 110.4153125 97.85664062 111.015625 98.39453125 C111.67046875 98.92433594 112.3253125 99.45414063 113 100 C113.89074219 100.79277344 114.78148437 101.58554687 115.69921875 102.40234375 C118.70081191 104.24918072 118.70081191 104.24918072 120.99365234 103.66137695 C123.25965591 102.81026539 125.39568562 101.82867615 127.5625 100.75 C129.03927908 100.04946014 130.51968019 99.35649575 132.00390625 98.671875 C132.65174072 98.3531543 133.2995752 98.03443359 133.96704102 97.70605469 C136.51576007 96.82087449 138.30864595 96.73769625 141 97 C142.99006653 98.39552307 142.99006653 98.39552307 144.92895508 100.37719727 C145.66354446 101.115392 146.39813385 101.85358673 147.15498352 102.614151 C147.93528427 103.42339523 148.71558502 104.23263947 149.51953125 105.06640625 C150.33693283 105.89325424 151.15433441 106.72010223 151.99650574 107.57200623 C154.61385401 110.22398603 157.21360315 112.8924466 159.8125 115.5625 C162.40396541 118.20413058 164.99896633 120.84221005 167.59635925 123.47801208 C169.21117104 125.11895412 170.8220146 126.7638141 172.42817688 128.41322327 C175.82235573 131.88136689 179.22735752 135.25848542 182.91088867 138.41967773 C187.98246942 142.77736158 192.63938905 147.53436049 197.34375 152.28125 C198.32176419 153.26368378 199.30008251 154.24581488 200.27868652 155.22766113 C203.87498984 158.83719318 207.46576596 162.45220706 211.05670166 166.06707764 C214.10355579 169.1338075 217.15255126 172.19837914 220.20429993 175.26023865 C221.61758629 176.67991157 223.02777111 178.10266999 224.43786621 179.5255127 C228.92652996 184.03113119 233.4581924 188.40527418 238.30236816 192.52845764 C241.00006099 194.86687353 243.49985037 197.39157299 246 199.9375 C246.48855469 200.43056641 246.97710938 200.92363281 247.48046875 201.43164062 C248.65603525 202.61873229 249.82838826 203.80900498 251 205 C248.02331389 205.90373463 245.80835725 206.02467646 242.73803711 205.57861328 C241.49170753 205.40315475 241.49170753 205.40315475 240.22019958 205.22415161 C239.33155716 205.0908847 238.44291473 204.9576178 237.52734375 204.8203125 C236.60788467 204.68809296 235.6884256 204.55587341 234.74110413 204.41964722 C232.79977796 204.13900557 230.85898338 203.85466528 228.91870117 203.56689453 C225.94627505 203.1263007 222.97239569 202.69693251 219.99804688 202.26953125 C218.11188381 201.9954471 216.22581273 201.72072896 214.33984375 201.4453125 C213.44917709 201.31609406 212.55851044 201.18687561 211.64085388 201.05374146 C210.81311966 200.93046478 209.98538544 200.80718811 209.13256836 200.68017578 C208.40516953 200.57279083 207.67777069 200.46540588 206.92832947 200.35476685 C205 200 205 200 202 199 C202 240.58 202 282.16 202 325 C199.64527448 322.64527448 198.17619019 320.90026634 196.46875 318.1484375 C195.9938916 317.38877686 195.5190332 316.62911621 195.02978516 315.84643555 C194.52495605 315.03086182 194.02012695 314.21528809 193.5 313.375 C192.41486689 311.6388199 191.32891362 309.90315218 190.2421875 308.16796875 C189.6965918 307.29575684 189.15099609 306.42354492 188.58886719 305.52490234 C186.3015939 301.89014814 183.96715795 298.28704068 181.625 294.6875 C175.61999587 285.44173461 169.70912903 276.13674544 163.79833984 266.83056641 C160.8682623 262.21865776 157.93395422 257.60944299 155 253 C153.83331226 251.16668008 152.66664561 249.33334673 151.5 247.5 C150.9225 246.5925 150.345 245.685 149.75 244.75 C135.16666667 221.83333333 120.58333333 198.91666667 106 176 C102.7486967 176.60590835 100.80652395 177.68115293 98.234375 179.73828125 C97.51660889 180.30571045 96.79884277 180.87313965 96.05932617 181.45776367 C95.29724854 182.06982666 94.5351709 182.68188965 93.75 183.3125 C92.13760214 184.58705585 90.52430186 185.8604708 88.91015625 187.1328125 C88.09434082 187.77766602 87.27852539 188.42251953 86.43798828 189.08691406 C82.72356202 192.00161907 78.96288219 194.8524134 75.1875 197.6875 C74.5368457 198.17968018 73.88619141 198.67186035 73.21582031 199.17895508 C72.6019043 199.63939209 71.98798828 200.0998291 71.35546875 200.57421875 C70.82590576 200.97213623 70.29634277 201.37005371 69.75073242 201.7800293 C67.5662807 203.30223056 65.28694947 204.6379667 63 206 C63.18439384 204.88421066 63.18439384 204.88421066 63.37251282 203.74588013 C64.95199454 193.56927329 65.83427829 183.40925324 66.3125 173.125 C66.35269257 172.26693504 66.39288513 171.40887009 66.43429565 170.52480316 C68.07938721 128.82319028 50.35319053 95.00364349 31.5 59.125 C31.13699185 58.43346234 30.7739837 57.74192469 30.3999753 57.02943134 C22.13969642 41.30827628 13.70388547 25.68697688 4.98450184 10.21525764 C4.47129226 9.30183035 3.95808268 8.38840305 3.42932129 7.44729614 C2.98170692 6.65559587 2.53409256 5.86389561 2.07291412 5.04820442 C1 3 1 3 0 0 Z " fill="#FDFDFE" transform="translate(1853,871)"/>
<path d="M0 0 C0.33 0 0.66 0 1 0 C1.01981934 0.86012695 1.03963867 1.72025391 1.06005859 2.60644531 C1.4854475 20.51978356 2.07127084 38.41486006 2.9375 56.3125 C3.87081908 75.61892271 4.52619683 94.93091186 5.125 114.25 C5.14727032 114.96807957 5.16954063 115.68615913 5.19248581 116.42599869 C5.46678756 125.28384477 5.73594511 134.14184217 6 143 C6.8971875 143.07814941 7.794375 143.15629883 8.71875 143.23681641 C35.87751735 145.85659936 35.87751735 145.85659936 40.55419922 150.91308594 C42.192324 153.92320953 43.41394643 156.76808523 44.36853027 160.05786133 C45.46198336 163.42086898 47.27677477 166.38416984 49.0078125 169.453125 C49.68806149 170.72850745 50.36396471 172.00621669 51.03564453 173.28613281 C53.22685645 177.44353778 55.42513516 181.59716793 57.625 185.75 C57.99698517 186.45263977 58.36897034 187.15527954 58.75222778 187.87921143 C62.18100224 194.35175663 65.64654806 200.80400154 69.125 207.25 C74.03274635 216.34782053 78.93076363 225.4507016 83.8125 234.5625 C84.12851166 235.15232666 84.44452332 235.74215332 84.77011108 236.34985352 C89.87695172 245.88398818 94.95642985 255.43225175 100 265 C96.02996302 265 93.73453034 263.20457597 90.5 261.125 C89.82001953 260.69445312 89.14003906 260.26390625 88.43945312 259.8203125 C80.78368265 254.93336794 73.25251446 249.85410537 65.70730591 244.79891968 C58.58865566 240.02987936 51.4457743 235.32582088 44.14672852 230.8359375 C38.25678428 227.19760001 32.45869386 223.42036175 26.66564941 219.63034058 C24.95479567 218.51131268 23.24256639 217.3944119 21.53027344 216.27758789 C16.70494435 213.12172069 11.89554959 209.95500972 7.171875 206.6484375 C6.48359619 206.17083984 5.79531738 205.69324219 5.08618164 205.20117188 C3.86519928 204.34835252 2.65258979 203.48334917 1.45092773 202.60351562 C-1.00788045 200.89081557 -2.44699194 199.95519083 -5.48876953 200.20166016 C-8.37572956 201.11944737 -9.20129561 201.91704586 -11.03515625 204.28125 C-14.15756838 208.07317365 -17.45648694 211.56944495 -20.93359375 215.03125 C-21.4603067 215.55686523 -21.98701965 216.08248047 -22.5296936 216.62402344 C-24.16359048 218.25141297 -25.80046893 219.87576389 -27.4375 221.5 C-28.5620833 222.61955632 -29.68643405 223.73934629 -30.81054688 224.859375 C-33.53769344 227.57561534 -36.26795907 230.28868292 -39 233 C-41.26844039 229.59733941 -41.80189993 226.9907882 -42.625 223 C-42.88539062 221.7625 -43.14578125 220.525 -43.4140625 219.25 C-44 216 -44 216 -44 213 C-44.66 213 -45.32 213 -46 213 C-46.21825439 213.54495117 -46.43650879 214.08990234 -46.66137695 214.65136719 C-48.44347659 217.77808587 -50.8619838 220.08899801 -53.41796875 222.578125 C-53.95343826 223.10839294 -54.48890778 223.63866089 -55.04060364 224.18499756 C-56.75153752 225.87817056 -58.46898768 227.56452208 -60.1875 229.25 C-62.43441641 231.46009221 -64.67809125 233.67339909 -66.91796875 235.890625 C-67.46265305 236.42972 -68.00733734 236.968815 -68.56852722 237.52424622 C-71.91492797 240.85799711 -75.05885164 244.29630834 -78.11987305 247.89501953 C-82.60928024 252.92133674 -87.51836663 257.57830221 -92.3125 262.3125 C-94.47816178 264.45152309 -96.64044431 266.59388197 -98.80078125 268.73828125 C-99.29347 269.22267166 -99.78615875 269.70706207 -100.29377747 270.20613098 C-102.48915375 272.38566507 -104.27467158 274.41200737 -106 277 C-111.79213649 276.25197832 -115.40298036 271.15489242 -119.32885742 267.22705078 C-120.80964782 265.75283951 -122.31276308 264.30428256 -123.81835938 262.85546875 C-124.75099609 261.92863281 -125.68363281 261.00179688 -126.64453125 260.046875 C-127.93387573 258.77602051 -127.93387573 258.77602051 -129.24926758 257.47949219 C-131 255 -131 255 -130.94335938 252.53369141 C-129.8887163 249.70111225 -128.67106011 247.08971967 -127.26171875 244.4140625 C-126.69525635 243.3307666 -126.12879395 242.2474707 -125.54516602 241.13134766 C-124.93213623 239.97425293 -124.31910645 238.8171582 -123.6875 237.625 C-123.047478 236.40576025 -122.40808202 235.18619169 -121.76928711 233.96630859 C-120.46950992 231.48625707 -119.16645279 229.00797675 -117.86035156 226.53125 C-115.24664082 221.57000169 -112.65449499 216.59761605 -110.0625 211.625 C-109.58385498 210.7086377 -109.10520996 209.79227539 -108.61206055 208.84814453 C-104.22839185 200.45314838 -99.87929296 192.04039519 -95.53201294 183.62652588 C-91.37176866 175.57538199 -87.19778349 167.53165483 -83 159.5 C-78.52020944 150.92772938 -74.06622143 142.34230215 -69.625 133.75 C-69.3096933 133.1400116 -68.9943866 132.53002319 -68.66952515 131.90155029 C-67.39415873 129.43420508 -66.11880768 126.96685192 -64.8434906 124.4994812 C-57.31915456 109.94358498 -49.77929078 95.39583699 -42.1875 80.875 C-37.20994851 71.35383305 -32.28918079 61.80395957 -27.375 52.25 C-21.31312406 40.46614468 -15.20807698 28.7076525 -9 17 C-8.13265344 15.36076124 -7.26547046 13.72143591 -6.3984375 12.08203125 C-4.26750345 8.05369017 -2.13440693 4.02650197 0 0 Z " fill="#FDFDFE" transform="translate(2074,672)"/>
<path d="M0 0 C89.6802444 0 89.6802444 0 103 12 C104.03833984 12.93392578 104.03833984 12.93392578 105.09765625 13.88671875 C118.96002465 27.90934574 124.1396241 49.37126659 124.16796875 68.50390625 C124.17296135 69.70441872 124.17296135 69.70441872 124.17805481 70.92918396 C124.18309394 72.61757844 124.18546407 74.30598278 124.18530273 75.99438477 C124.18747299 78.53093668 124.20561603 81.06704136 124.22460938 83.60351562 C124.27392026 97.09363488 123.24584464 109.84052657 118.8125 122.6875 C118.50497803 123.58815186 118.19745605 124.48880371 117.88061523 125.41674805 C113.25830546 138.43619507 105.84542157 149.53784075 93.30078125 155.97265625 C64.55245836 168.80934372 29.00113965 161 0 161 C0 107.87 0 54.74 0 0 Z " fill="#AA0304" transform="translate(1521,1417)"/>
<path d="M0 0 C11.88 0 23.76 0 36 0 C44.0743725 9.32729237 44.0743725 9.32729237 45.5859375 13.91015625 C48.1571847 20.78885899 51.92587104 26.65005729 55.875 32.8125 C57.24788373 35.02853375 58.61638494 37.24728862 59.98046875 39.46875 C60.65255371 40.55929687 61.32463867 41.64984375 62.01708984 42.7734375 C65.09136567 47.77585431 68.1400226 52.79372836 71.1875 57.8125 C77.72938805 68.58088876 84.36148277 79.29069391 91 90 C96.28 98.58 101.56 107.16 107 116 C107.33 77.72 107.66 39.44 108 0 C119.55 0 131.1 0 143 0 C143 60.72 143 121.44 143 184 C131.45 184 119.9 184 108 184 C98.07723942 172.05076015 98.07723942 172.05076015 95.9140625 166.64453125 C93.28822221 160.51316775 90.12184664 155.08555057 86.5 149.5 C85.42974407 147.77712506 84.36336832 146.05183402 83.30078125 144.32421875 C79.78283519 138.64122032 76.23513028 132.97699675 72.6875 127.3125 C66.76945632 117.85940952 60.9033488 108.37538109 55.0690918 98.87036133 C48.74091727 88.56244749 42.36671632 78.2846956 36 68 C35.67 106.28 35.34 144.56 35 184 C23.45 184 11.9 184 0 184 C0 123.28 0 62.56 0 0 Z " fill="#344D88" transform="translate(1419,1714)"/>
<path d="M0 0 C11.88 0 23.76 0 36 0 C36 26.07 36 52.14 36 79 C56.46 79 76.92 79 98 79 C98 52.93 98 26.86 98 0 C109.88 0 121.76 0 134 0 C134.02254474 23.84296661 134.04097784 47.68592464 134.05181217 71.52889919 C134.05697571 82.59877846 134.0640195 93.66865066 134.07543945 104.73852539 C134.08538454 114.38331054 134.09185301 124.02809057 134.09408849 133.67288071 C134.0953959 138.78306561 134.09848364 143.89323585 134.10573006 149.00341606 C134.1124875 153.80742559 134.11461753 158.61141433 134.11310768 163.41542816 C134.11338413 165.18398463 134.11539088 166.95254175 134.11920547 168.72109413 C134.12413843 171.12487473 134.12299978 173.52857557 134.12025452 175.93235779 C134.12462378 176.99605383 134.12462378 176.99605383 134.12908131 178.08123869 C134.11412121 182.88587879 134.11412121 182.88587879 133 184 C121.45 184 109.9 184 98 184 C98 159.91 98 135.82 98 111 C77.54 111 57.08 111 36 111 C36 135.09 36 159.18 36 184 C24.45 184 12.9 184 1 184 C-0.66749941 182.33250059 -0.12214776 180.30804249 -0.12908131 178.08123869 C-0.12616847 177.37210799 -0.12325563 176.66297729 -0.12025452 175.93235779 C-0.12110894 175.18421328 -0.12196337 174.43606877 -0.12284368 173.66525322 C-0.12450073 171.13936053 -0.11897348 168.61353314 -0.11352539 166.08764648 C-0.11324354 164.28456626 -0.11340121 162.48148592 -0.1139679 160.67840576 C-0.11425596 155.76745461 -0.10835784 150.85652766 -0.10139394 145.94558215 C-0.09516184 140.81927788 -0.09455672 135.69297312 -0.09336853 130.56666565 C-0.09025479 120.85209374 -0.08204083 111.13753303 -0.07201904 101.42296606 C-0.06085923 90.36632283 -0.05534779 79.30967907 -0.05032361 68.25303161 C-0.03985825 45.50201343 -0.02151224 22.7510106 0 0 Z " fill="#38518A" transform="translate(2836,1714)"/>
<path d="M0 0 C0 8.91 0 17.82 0 27 C-11.91347604 26.55043487 -23.75023284 25.98358397 -35.625 24.9375 C-43.56365693 24.26545418 -51.46921792 23.76869169 -59.4375 23.6875 C-60.25879395 23.67001709 -61.08008789 23.65253418 -61.92626953 23.63452148 C-70.09882617 23.6420592 -78.3846943 25.29149599 -84.46875 31.07421875 C-93.48119058 42.40874223 -94.1361146 58.20655942 -94.203125 72.0546875 C-94.21167511 73.46622604 -94.21167511 73.46622604 -94.22039795 74.90628052 C-94.22979301 76.89128517 -94.2363599 78.87630502 -94.24023438 80.86132812 C-94.24986171 83.83232475 -94.2809059 86.80260491 -94.3125 89.7734375 C-94.7247181 115.76746887 -94.7247181 115.76746887 -84.625 138.9375 C-77.54978289 144.49659916 -69.8568093 145.76079561 -61 145 C-50.30117371 143.54410479 -42.99224327 139.99612163 -33 135 C-32.67 124.11 -32.34 113.22 -32 102 C-40.58 102 -49.16 102 -58 102 C-58 94.41 -58 86.82 -58 79 C-37.25736914 72.77721074 -19.12344966 73 3 73 C3 107.65 3 142.3 3 178 C-22 178 -22 178 -28.0625 172.5 C-29.91015625 169.40625 -29.91015625 169.40625 -31 167 C-33.19130334 168.07769017 -35.34767328 169.19102927 -37.48828125 170.3671875 C-53.99753191 179.18125493 -72.41385663 182.11261124 -90.6875 177.375 C-103.7041674 172.96935873 -113.43840812 165.36031358 -119.62890625 152.99609375 C-120.30759766 151.51302734 -120.30759766 151.51302734 -121 150 C-121.44214844 149.04222656 -121.88429688 148.08445312 -122.33984375 147.09765625 C-130.34158357 127.42164557 -130.38460934 106.08678422 -130.4375 85.1875 C-130.4436734 84.14999603 -130.4498468 83.11249207 -130.45620728 82.04354858 C-130.55560615 56.02338828 -129.13041766 26.08911949 -110.25390625 6.06640625 C-82.67208686 -19.2209117 -32.42838955 -7.99900276 0 0 Z " fill="#354E89" transform="translate(1864,1720)"/>
<path d="M0 0 C89.63533266 0 89.63533266 0 102.3125 11.6875 C113.87515658 24.18262889 114.65124113 40.35563323 114.2890625 56.51171875 C114.02700979 62.9804569 113.05529399 68.83411804 111 75 C110.7215625 75.8971875 110.443125 76.794375 110.15625 77.71875 C107.46036712 85.43455273 103.1839362 91.6580319 95.75 95.375 C95.10546875 95.65085937 94.4609375 95.92671875 93.796875 96.2109375 C91.72193673 97.06018232 91.72193673 97.06018232 89 99 C89.30591064 99.60658447 89.61182129 100.21316895 89.92700195 100.83813477 C97.46707745 115.80738165 104.84063764 130.84497095 112 146 C112.34885254 146.73508789 112.69770508 147.47017578 113.05712891 148.22753906 C118 158.65496575 118 158.65496575 118 161 C106.78 161 95.56 161 84 161 C77.11715825 147.23431649 77.11715825 147.23431649 74.34375 140.62890625 C74.03352905 139.8998558 73.72330811 139.17080536 73.40368652 138.41966248 C72.43221828 136.13543771 71.46570353 133.84916713 70.5 131.5625 C69.85586756 130.04084674 69.21133797 128.51936154 68.56640625 126.99804688 C68.25171387 126.25227386 67.93702148 125.50650085 67.61279297 124.73812866 C66.9772296 123.25362669 66.32785021 121.77496099 65.66455078 120.30264282 C64.13038399 116.87361125 62.96486131 113.84177561 62.14453125 110.14794922 C61.27828774 105.99898592 61.27828774 105.99898592 57 101 C48.09 99.68 39.18 98.36 30 97 C30 118.12 30 139.24 30 161 C20.1 161 10.2 161 0 161 C0 107.87 0 54.74 0 0 Z " fill="#A90203" transform="translate(2364,1417)"/>
<path d="M0 0 C1.01707031 -0.00386719 2.03414062 -0.00773437 3.08203125 -0.01171875 C9.14277539 -0.0040372 15.09136856 0.323082 21.12451172 0.87548828 C27.61182976 1.37346327 34.12202999 1.46507865 40.625 1.625 C70.3265339 2.36288348 70.3265339 2.36288348 77.375 4.125 C77.375 13.695 77.375 23.265 77.375 33.125 C73.82455933 33.13116333 73.82455933 33.13116333 70.20239258 33.13745117 C62.37911856 33.15465392 54.55617123 33.19916423 46.73309803 33.25709057 C41.990214 33.29137142 37.24765246 33.31647224 32.50463867 33.32055664 C27.92669582 33.32483727 23.34948057 33.35328005 18.77176476 33.39843178 C17.02592902 33.41141439 15.28000624 33.41571174 13.53412819 33.41115379 C11.08681453 33.40625296 8.64163167 33.4323136 6.19458008 33.46557617 C5.47384811 33.45695053 4.75311615 33.44832489 4.01054382 33.43943787 C0.18580952 33.52650051 -1.51935225 34.0427955 -4.57250977 36.41845703 C-6.52921993 38.99869837 -7.25209809 39.95351504 -7.28442383 43.08911133 C-7.31388847 44.19969658 -7.31388847 44.19969658 -7.34394836 45.3327179 C-7.33804939 46.50800301 -7.33804939 46.50800301 -7.33203125 47.70703125 C-7.34715256 48.52121017 -7.36227386 49.3353891 -7.37785339 50.17424011 C-7.42067437 52.76227636 -7.42956247 55.34914505 -7.4375 57.9375 C-7.46064883 59.69729654 -7.48601498 61.45706541 -7.51367188 63.21679688 C-7.57646832 67.51963419 -7.60884735 71.821745 -7.625 76.125 C-6.55910645 76.11992432 -5.49321289 76.11484863 -4.39501953 76.10961914 C6.39014609 76.07457399 17.16237938 76.21956929 27.94384766 76.49731445 C30.5054549 76.56263911 33.06715372 76.62232045 35.62890625 76.68164062 C45.89843411 76.93223393 56.12760222 77.39712575 66.375 78.125 C66.39965746 82.2367256 66.41783959 86.34842278 66.42993164 90.46020508 C66.4349708 91.85995228 66.44180216 93.2596942 66.45043945 94.65942383 C66.4625232 96.66745777 66.46769807 98.67552957 66.47265625 100.68359375 C66.47789307 101.89329834 66.48312988 103.10300293 66.48852539 104.34936523 C66.375 107.125 66.375 107.125 65.375 108.125 C62.97409708 108.28681755 60.59948347 108.38519606 58.1953125 108.44140625 C57.44725342 108.46223267 56.69919434 108.48305908 55.9284668 108.5045166 C53.45242168 108.57115885 50.97626759 108.62975614 48.5 108.6875 C47.65918884 108.70867889 46.81837769 108.72985779 45.9520874 108.75167847 C28.09259958 109.1991504 10.23881048 109.23361999 -7.625 109.125 C-7.55609298 114.17919674 -7.4681126 119.23256854 -7.36254883 124.28613281 C-7.32932319 126.00478965 -7.30128384 127.72355499 -7.27856445 129.44238281 C-7.24497439 131.91518323 -7.19265822 134.38699156 -7.13671875 136.859375 C-7.13032883 137.62618591 -7.1239389 138.39299683 -7.11735535 139.18304443 C-7.02938817 142.38477218 -6.83311963 144.74511648 -5.28051758 147.57910156 C-1.8151515 150.81501042 2.42410414 150.29466656 6.87573242 150.33032227 C7.63694901 150.34022186 8.39816559 150.35012146 9.18244934 150.36032104 C11.69842418 150.39190729 14.21441789 150.41668209 16.73046875 150.44140625 C18.47496532 150.46197826 20.21945693 150.4829748 21.96394348 150.50437927 C26.55553167 150.55957442 31.14716465 150.60899499 35.73883057 150.65722656 C40.42423489 150.70746024 45.10957417 150.76313657 49.79492188 150.81835938 C58.98822774 150.9259097 68.18158887 151.02685869 77.375 151.125 C77.375 160.695 77.375 170.265 77.375 180.125 C56.7039192 182.19601566 36.15963995 183.74996335 15.375 184.125 C14.01039892 184.15713256 12.64581571 184.19003191 11.28125 184.22363281 C7.78182419 184.30772408 4.28270487 184.36683242 0.78253174 184.40908813 C-1.1824593 184.43655588 -3.14717371 184.48199687 -5.11181641 184.52807617 C-16.49027738 184.59833224 -26.20972476 182.09938383 -34.625 174.125 C-42.27950173 165.81097201 -43.06972199 156.19836764 -43.01318359 145.32836914 C-43.01844055 144.07515366 -43.02369751 142.82193817 -43.02911377 141.53074646 C-43.04000217 138.11729962 -43.03752454 134.70440337 -43.02797651 131.29098821 C-43.02033329 127.70289116 -43.02743854 124.1148162 -43.03213501 120.52671814 C-43.03757978 114.50222598 -43.03043541 108.47784446 -43.01611328 102.45336914 C-42.99979659 95.51017094 -43.00507319 88.56723721 -43.0215925 81.62404543 C-43.03525285 75.64071947 -43.03710468 69.65747264 -43.02927649 63.6741361 C-43.0246239 60.11027444 -43.02390782 56.54653665 -43.03388596 52.98268318 C-43.04424548 49.00536124 -43.0298442 45.02833001 -43.01318359 41.05102539 C-43.01925629 39.88552155 -43.02532898 38.7200177 -43.03158569 37.51919556 C-42.95048967 27.0260939 -41.23350852 17.79952595 -33.625 10.125 C-23.11609501 1.68342058 -13.1997991 -0.04906989 0 0 Z " fill="#344E89" transform="translate(1169.625,1713.875)"/>
<path d="M0 0 C0.82880676 -0.00550873 1.65761353 -0.01101746 2.51153564 -0.01669312 C5.18755319 -0.02833775 7.86304482 -0.02208906 10.5390625 -0.01171875 C11.90982941 -0.00998154 11.90982941 -0.00998154 13.30828857 -0.00820923 C66.98968405 0.1264028 66.98968405 0.1264028 74.1640625 7.30078125 C74.25164253 9.30043107 74.27102826 11.30314235 74.26171875 13.3046875 C74.25688477 15.12709961 74.25688477 15.12709961 74.25195312 16.98632812 C74.23938477 18.90541992 74.23938477 18.90541992 74.2265625 20.86328125 C74.22205078 22.14654297 74.21753906 23.42980469 74.21289062 24.75195312 C74.20105795 27.93494147 74.18457318 31.11783887 74.1640625 34.30078125 C66.80610453 34.41967106 59.52234368 34.25029827 52.1796875 33.81640625 C42.65153914 33.26789075 33.14122693 33.08153991 23.59814453 33.06054688 C20.87373554 33.05063453 18.15002142 33.01935439 15.42578125 32.98828125 C13.66667102 32.98176617 11.90755557 32.97650988 10.1484375 32.97265625 C9.34734558 32.96030945 8.54625366 32.94796265 7.72088623 32.9352417 C2.46421583 32.95602677 -1.16418786 33.8477021 -5.8359375 36.30078125 C-10.58733679 41.36894049 -10.05007766 46.9483421 -10.0859375 53.48828125 C-10.1065625 54.40931641 -10.1271875 55.33035156 -10.1484375 56.27929688 C-10.1827252 62.3182176 -9.60663346 66.88587762 -6.8359375 72.30078125 C-2.25812794 76.24701212 2.75314442 75.7085336 8.4765625 75.671875 C10.54297027 75.68927378 12.60937648 75.70685796 14.67578125 75.72460938 C17.9096995 75.73462529 21.14350839 75.73829218 24.37744141 75.73657227 C41.22866498 75.75597122 56.02853883 76.04437787 69.09375 88.078125 C80.38444352 99.92608451 81.50728511 114.5920682 81.4140625 130.17578125 C81.42566406 132.10357422 81.42566406 132.10357422 81.4375 134.0703125 C81.4066564 149.26078627 79.52460969 163.85998299 68.7265625 175.42578125 C65.23739507 178.52553267 61.46074812 180.53445734 57.1640625 182.30078125 C56.47957031 182.58824219 55.79507813 182.87570312 55.08984375 183.171875 C47.86364904 186.0485887 40.9556491 186.47509268 33.24609375 186.5390625 C32.28347122 186.5487204 31.32084869 186.5583783 30.32905579 186.56832886 C27.21151895 186.59316654 24.09418765 186.60572681 20.9765625 186.61328125 C19.91926941 186.61623199 18.86197632 186.61918274 17.77264404 186.6222229 C-2.1102784 186.63487756 -20.83252716 185.63525136 -39.8359375 179.30078125 C-39.8359375 170.39078125 -39.8359375 161.48078125 -39.8359375 152.30078125 C-37.75023438 152.37296875 -35.66453125 152.44515625 -33.515625 152.51953125 C-17.91539922 153.04061785 -2.30697871 153.45507331 13.30169678 153.58789062 C14.94749621 153.60469068 16.59324037 153.62850848 18.23883057 153.65966797 C30.88333458 154.21872051 30.88333458 154.21872051 42.1640625 149.30078125 C46.03546207 144.37624234 45.61442096 138.80433818 45.5390625 132.80078125 C45.55066406 131.87652344 45.56226562 130.95226563 45.57421875 130 C45.55140496 124.68438615 45.14574459 120.88630212 42.1640625 116.30078125 C38.53550619 112.90632535 34.99402899 112.19481502 30.13671875 112.12719727 C29.35490234 112.11370743 28.57308594 112.10021759 27.76757812 112.08631897 C26.92904297 112.07588058 26.09050781 112.0654422 25.2265625 112.0546875 C23.425777 112.02171575 21.62499587 111.98850473 19.82421875 111.95507812 C17.00507968 111.90797043 14.18595385 111.86358885 11.36669922 111.82397461 C-22.81605215 111.3206666 -22.81605215 111.3206666 -34.8359375 99.30078125 C-39.26165843 93.73328957 -42.03149414 88.15546547 -43.8359375 81.30078125 C-44.1865625 80.22441406 -44.5371875 79.14804688 -44.8984375 78.0390625 C-46.41395913 71.90348318 -46.13298657 65.53701777 -46.09667969 59.25732422 C-46.08602961 57.06970047 -46.09657915 54.88291013 -46.109375 52.6953125 C-46.12180283 42.12888483 -46.06128581 31.39009766 -40.9609375 21.86328125 C-40.46851562 20.91582031 -39.97609375 19.96835938 -39.46875 18.9921875 C-33.54458764 9.22724045 -23.92706272 4.35392367 -13.17724609 1.24145508 C-8.75597694 0.1649496 -4.53470784 -0.00454877 0 0 Z " fill="#344E88" transform="translate(2581.8359375,1712.69921875)"/>
<path d="M0 0 C10.56 0 21.12 0 32 0 C33.051875 1.876875 34.10375 3.75375 35.1875 5.6875 C40.26478068 14.63052307 45.7342973 23.32842473 51.16992188 32.05615234 C60.90465568 47.71535996 70.51385022 63.45150399 80.06542969 79.22290039 C84.67756443 86.83630571 89.33448549 94.41853892 94 102 C94.33 68.34 94.66 34.68 95 0 C105.23 0 115.46 0 126 0 C126 53.13 126 106.26 126 161 C115.77 161 105.54 161 95 161 C90.24165317 154.20236167 85.74896778 147.47110538 81.5 140.375 C76.58271548 132.23118213 71.61319451 124.12429994 66.5625 116.0625 C65.63280396 114.5777417 65.63280396 114.5777417 64.68432617 113.06298828 C62.14942214 109.0175031 59.611701 104.97379452 57.07226562 100.93115234 C55.77974855 98.87312275 54.48800596 96.81460656 53.19702148 94.75561523 C52.00816186 92.85950812 50.8177768 90.9643558 49.62524414 89.07055664 C43.60291217 79.46302949 37.83821215 69.73035358 32 60 C31.67 93.33 31.34 126.66 31 161 C20.77 161 10.54 161 0 161 C0 107.87 0 54.74 0 0 Z " fill="#A90203" transform="translate(1941,1417)"/>
<path d="M0 0 C11.55 0 23.1 0 35 0 C43.15274842 24.42171314 51.26651634 48.85543138 59.3125 73.3125 C59.57991375 74.12520103 59.8473275 74.93790207 60.1228447 75.77523041 C67.17269759 97.20272592 74.19306825 118.6388512 81.0625 140.125 C81.3780484 141.10916901 81.6935968 142.09333801 82.01870728 143.10733032 C82.88179885 145.80224288 83.74069636 148.49844479 84.59765625 151.1953125 C84.8463446 151.97163528 85.09503296 152.74795807 85.35125732 153.54780579 C87 158.76825978 87 158.76825978 87 161 C76.11 161 65.22 161 54 161 C50.37 149.78 46.74 138.56 43 127 C25.51 126.67 8.02 126.34 -10 126 C-10.99 129.63 -11.98 133.26 -13 137 C-13.65867538 139.11515129 -14.33546243 141.22489671 -15.04296875 143.32421875 C-15.36031982 144.27127686 -15.6776709 145.21833496 -16.00463867 146.1940918 C-16.59015503 147.92332886 -16.59015503 147.92332886 -17.1875 149.6875 C-18.445625 153.420625 -19.70375 157.15375 -21 161 C-31.89 161 -42.78 161 -54 161 C-52.11346084 154.08268976 -50.1986202 147.31778645 -47.89990234 140.54858398 C-47.60460884 139.67058136 -47.30931534 138.79257874 -47.00507355 137.88796997 C-46.03504893 135.00631648 -45.06053714 132.12620281 -44.0859375 129.24609375 C-43.39558035 127.19841736 -42.7054921 125.15065029 -42.01565552 123.10279846 C-40.18286066 117.6646982 -38.34609863 112.2279461 -36.50839233 106.79150391 C-34.99745578 102.32024805 -33.48874162 97.84824374 -31.98006058 93.37622643 C-27.63792052 80.50543792 -23.28927658 67.63685504 -18.93681335 54.76955414 C-18.06441111 52.19042219 -17.19215703 49.61124018 -16.31994629 47.03204346 C-13.38471718 38.35308047 -10.44521375 29.67558085 -7.5 21 C-7.15588074 19.98533661 -6.81176147 18.97067322 -6.45721436 17.92526245 C-5.52521071 15.17877649 -4.59120238 12.43298333 -3.65625 9.6875 C-3.39433868 8.91531631 -3.13242737 8.14313263 -2.86257935 7.34754944 C-1.1157463 2.2314926 -1.1157463 2.2314926 0 0 Z " fill="#A90203" transform="translate(1418,1417)"/>
<path d="M0 0 C10.23 0 20.46 0 31 0 C31.01981934 3.14821289 31.03963867 6.29642578 31.06005859 9.54003906 C31.12714162 19.97353132 31.20477813 30.40692616 31.28752708 40.84030533 C31.33734774 47.16239503 31.38367859 53.48446916 31.421875 59.80664062 C31.45890808 65.91457091 31.50531592 72.02236628 31.55806351 78.13018036 C31.57651206 80.45358652 31.5916547 82.7770215 31.60334396 85.1004715 C31.62037065 88.36952864 31.64944358 91.63828317 31.68115234 94.90722656 C31.68331253 95.85526154 31.68547272 96.80329651 31.68769836 97.78005981 C31.8121998 107.91100648 32.24221396 119.64041147 39.3828125 127.52734375 C45.49968335 133.05174282 51.99923033 133.34167576 59.8125 133.3125 C60.66392578 133.32861328 61.51535156 133.34472656 62.39257812 133.36132812 C69.52681077 133.36676166 75.66151027 132.00309384 81.8125 128.3125 C93.59162613 115.86028095 91.46680726 93.97349667 91.51171875 78.125 C91.52859991 75.86099293 91.54675465 73.59699503 91.56611633 71.33300781 C91.61324949 65.42804839 91.64329481 59.52312619 91.66955566 53.61804199 C91.69954802 47.57080743 91.74601332 41.52370069 91.79101562 35.4765625 C91.87663058 23.65109451 91.94263399 11.8256388 92 0 C102.23 0 112.46 0 123 0 C123.06823145 12.91918674 123.12307609 25.83825052 123.15543652 38.7575779 C123.17098095 44.75886444 123.19200983 50.76001954 123.22631836 56.76123047 C123.25931752 62.57087845 123.27693695 68.38040136 123.28463173 74.19013596 C123.29010346 76.38809549 123.30078396 78.5860495 123.31719017 80.78395462 C123.48846301 104.71762556 123.43876078 132.40932107 106 151 C96.16215526 159.48580822 84.66167622 162.14794621 71.93359375 162.16796875 C71.1776442 162.17129715 70.42169464 162.17462555 69.64283752 162.17805481 C68.04860028 162.18309165 66.45435261 162.18546414 64.86010742 162.18530273 C62.46840138 162.18747197 60.07717053 162.20561453 57.68554688 162.22460938 C40.10771946 162.28954072 26.70892084 161.25447174 13.484375 148.6875 C6.181333 140.78735394 3.97171297 130.32652196 2 120 C1.82906326 119.12872467 1.65812653 118.25744934 1.48200989 117.35977173 C-0.53643682 105.42930055 -0.25187814 93.50870717 -0.1953125 81.4453125 C-0.19157553 79.08877686 -0.18873179 76.73223966 -0.18673706 74.3757019 C-0.17915445 68.21746418 -0.15955292 62.05932301 -0.1373291 55.90112305 C-0.11675407 49.59945989 -0.10771057 43.29778092 -0.09765625 36.99609375 C-0.07630128 24.66401358 -0.04116376 12.33202998 0 0 Z " fill="#A90203" transform="translate(2220,1417)"/>
<path d="M0 0 C0.83592178 -0.00136459 1.67184357 -0.00272919 2.53309631 -0.00413513 C5.24606309 -0.00615792 7.9589194 0.00014752 10.671875 0.0078125 C11.5938266 0.00903107 12.5157782 0.01024963 13.46566772 0.01150513 C63.2905387 0.08903373 63.2905387 0.08903373 72.421875 3.1328125 C72.421875 11.7128125 72.421875 20.2928125 72.421875 29.1328125 C69.26467896 29.15468628 69.26467896 29.15468628 66.04370117 29.17700195 C59.09455601 29.22730711 52.1456359 29.29389472 45.19671154 29.36852741 C40.98296706 29.41328219 36.76932041 29.4525268 32.55541992 29.47924805 C28.48982655 29.50523045 24.42460862 29.54559623 20.35924721 29.59599876 C18.80713885 29.61270192 17.2549655 29.62419469 15.70277977 29.63042641 C13.53086227 29.64003048 11.35991272 29.6680428 9.18823242 29.70043945 C7.33291145 29.71709404 7.33291145 29.71709404 5.44010925 29.73408508 C2.44218632 29.87827931 2.44218632 29.87827931 0.56147766 31.53483582 C-1.93856313 35.04044968 -1.77292104 37.8356448 -1.89453125 42.109375 C-1.91531235 42.7946225 -1.93609344 43.47987 -1.95750427 44.18588257 C-2.02292685 46.37642319 -2.08185054 48.56708439 -2.140625 50.7578125 C-2.18381718 52.2422 -2.2274317 53.72657528 -2.27148438 55.2109375 C-2.37860053 58.85143334 -2.47988862 62.49206501 -2.578125 66.1328125 C-1.8881543 66.12233887 -1.19818359 66.11186523 -0.48730469 66.10107422 C20.56229254 65.82926674 41.42088899 66.79257864 62.421875 68.1328125 C62.421875 76.7128125 62.421875 85.2928125 62.421875 94.1328125 C40.7368471 95.1074205 19.12424797 95.24536769 -2.578125 95.1328125 C-2.50903787 99.31430127 -2.42097258 103.49484004 -2.31567383 107.67553711 C-2.28251943 109.09632452 -2.25445808 110.51724063 -2.23168945 111.93823242 C-2.19796653 113.9867207 -2.14564755 116.0340397 -2.08984375 118.08203125 C-2.06365967 119.31268311 -2.03747559 120.54333496 -2.01049805 121.8112793 C-1.54852527 125.36020062 -0.71267953 127.289684 1.421875 130.1328125 C4.28876404 131.56625702 6.77863578 131.29735309 9.98291016 131.33813477 C10.65619858 131.34803436 11.329487 131.35793396 12.0231781 131.36813354 C14.25239526 131.39976365 16.48163374 131.42451184 18.7109375 131.44921875 C20.25508178 131.46978698 21.79922041 131.49078342 23.34335327 131.51219177 C27.41051667 131.56742599 31.47773099 131.61682928 35.54498291 131.66503906 C39.69409729 131.71524425 43.84313759 131.77093543 47.9921875 131.82617188 C56.13535577 131.93376998 64.27858686 132.0347044 72.421875 132.1328125 C72.421875 140.3828125 72.421875 148.6328125 72.421875 157.1328125 C56.24884239 162.52382337 34.11893157 160.39934554 17.18569946 160.85961914 C15.14711045 160.91640559 13.10866223 160.97851517 11.07040405 161.04614258 C8.17080635 161.13992019 5.27144518 161.21151719 2.37109375 161.27734375 C1.5147937 161.30834671 0.65849365 161.33934967 -0.22375488 161.37129211 C-8.96179503 161.51890863 -16.91907401 159.54237667 -23.7578125 153.921875 C-32.03648678 145.78532388 -33.76284588 136.59237048 -33.87139893 125.30612183 C-33.87049255 124.37131989 -33.86958618 123.43651794 -33.86865234 122.47338867 C-33.87536957 121.45893173 -33.88208679 120.44447479 -33.88900757 119.39927673 C-33.90786955 116.07472722 -33.91190566 112.75038081 -33.9140625 109.42578125 C-33.92049813 107.0946698 -33.92722705 104.76355914 -33.93423462 102.43244934 C-33.94617756 97.55642831 -33.94991847 92.68047797 -33.94873047 87.80444336 C-33.94852734 81.58425716 -33.9758369 75.36452815 -34.01027489 69.14445019 C-34.03260912 64.3323207 -34.03656602 59.52030016 -34.03551102 54.70812416 C-34.03785686 52.41620622 -34.04662243 50.12428481 -34.06217575 47.83241844 C-34.24800188 17.62537006 -34.24800188 17.62537006 -24.57421875 7.78515625 C-16.84794761 1.38943669 -9.85928936 -0.02464305 0 0 Z " fill="#AA0304" transform="translate(1849.578125,1417.8671875)"/>
<path d="M0 0 C0.77585449 -0.00409882 1.55170898 -0.00819763 2.35107422 -0.01242065 C4.90336444 -0.02204349 7.4555066 -0.02193422 10.0078125 -0.01953125 C11.31640228 -0.02012039 11.31640228 -0.02012039 12.65142822 -0.02072144 C26.45706625 -0.01333572 40.22139981 0.38805861 54.0078125 1.10546875 C54.86163513 1.1489444 55.71545776 1.19242004 56.59515381 1.23721313 C59.00136312 1.36240731 61.40695771 1.49544554 63.8125 1.6328125 C64.88624878 1.69071457 64.88624878 1.69071457 65.98168945 1.74978638 C70.8980239 2.05057445 70.8980239 2.05057445 73.1328125 3.16796875 C73.1328125 11.74796875 73.1328125 20.32796875 73.1328125 29.16796875 C69.97561646 29.18984253 69.97561646 29.18984253 66.75463867 29.2121582 C59.80549351 29.26246336 52.8565734 29.32905097 45.90764904 29.40368366 C41.69390456 29.44843844 37.48025791 29.48768305 33.26635742 29.5144043 C29.20076405 29.5403867 25.13554612 29.58075248 21.07018471 29.63115501 C19.51807635 29.64785817 17.965903 29.65935094 16.41371727 29.66558266 C14.24179977 29.67518673 12.07085022 29.70319905 9.89916992 29.7355957 C8.04384895 29.75225029 8.04384895 29.75225029 6.15104675 29.76924133 C3.15312382 29.91343556 3.15312382 29.91343556 1.27241516 31.56999207 C-1.22762563 35.07560593 -1.06198354 37.87080105 -1.18359375 42.14453125 C-1.20437485 42.82977875 -1.22515594 43.51502625 -1.24656677 44.22103882 C-1.31198935 46.41157944 -1.37091304 48.60224064 -1.4296875 50.79296875 C-1.47287968 52.27735625 -1.5164942 53.76173153 -1.56054688 55.24609375 C-1.66766303 58.88658959 -1.76895112 62.52722126 -1.8671875 66.16796875 C0.0204834 66.20555298 0.0204834 66.20555298 1.94628906 66.24389648 C6.71767489 66.33969764 11.48897177 66.43946035 16.26025391 66.5402832 C18.30613085 66.58299228 20.35202908 66.62469612 22.39794922 66.6652832 C35.99491502 66.93588621 49.55281731 67.42667543 63.1328125 68.16796875 C63.1328125 76.74796875 63.1328125 85.32796875 63.1328125 94.16796875 C41.45562301 94.88626615 19.82352137 95.32453689 -1.8671875 95.16796875 C-1.79810037 99.34945752 -1.71003508 103.52999629 -1.60473633 107.71069336 C-1.57158193 109.13148077 -1.54352058 110.55239688 -1.52075195 111.97338867 C-1.48702903 114.02187695 -1.43471005 116.06919595 -1.37890625 118.1171875 C-1.35272217 119.34783936 -1.32653809 120.57849121 -1.29956055 121.84643555 C-0.83758777 125.39535687 -0.00174203 127.32484025 2.1328125 130.16796875 C4.99970154 131.60141327 7.48957328 131.33250934 10.69384766 131.37329102 C11.36713608 131.38319061 12.0404245 131.39309021 12.7341156 131.40328979 C14.96333276 131.4349199 17.19257124 131.45966809 19.421875 131.484375 C20.96601928 131.50494323 22.51015791 131.52593967 24.05429077 131.54734802 C28.12145417 131.60258224 32.18866849 131.65198553 36.25592041 131.70019531 C40.40503479 131.7504005 44.55407509 131.80609168 48.703125 131.86132812 C56.84629327 131.96892623 64.98952436 132.06986065 73.1328125 132.16796875 C73.1328125 140.41796875 73.1328125 148.66796875 73.1328125 157.16796875 C69.93668577 158.23334433 67.29751492 158.45215704 63.9375 158.66796875 C62.67663574 158.74998535 61.41577148 158.83200195 60.11669922 158.91650391 C58.74709588 159.00074219 57.37746623 159.08455378 56.0078125 159.16796875 C55.31463928 159.21121277 54.62146606 159.25445679 53.9072876 159.29901123 C40.65662667 160.12429476 27.40509176 160.80654511 14.1328125 161.16796875 C12.67367432 161.21099121 12.67367432 161.21099121 11.18505859 161.25488281 C8.35509321 161.32976718 5.52597778 161.3789146 2.6953125 161.41796875 C1.87337402 161.43939941 1.05143555 161.46083008 0.20458984 161.48291016 C-9.4842467 161.5365714 -17.76721307 158.87173925 -24.8671875 152.16796875 C-32.34980872 144.39305764 -33.32063403 133.6233774 -33.27124023 123.30322266 C-33.27810349 122.27886612 -33.28496674 121.25450958 -33.29203796 120.19911194 C-33.3101854 116.84743989 -33.30648541 113.49624139 -33.30078125 110.14453125 C-33.305349 107.79242808 -33.31065633 105.44032625 -33.31666565 103.08822632 C-33.32557328 98.1710669 -33.32320054 93.2540701 -33.31323242 88.33691406 C-33.30174942 82.06404545 -33.32195673 75.79174034 -33.35114956 69.51894569 C-33.36957643 64.66476937 -33.3692061 59.81072645 -33.36351204 54.9565239 C-33.3633596 52.64507634 -33.36933924 50.3336193 -33.38180351 48.02220535 C-33.52254652 17.64575868 -33.52254652 17.64575868 -23.86328125 7.8203125 C-16.39577188 1.638793 -9.54499163 0.01576874 0 0 Z " fill="#AA0304" transform="translate(2530.8671875,1417.83203125)"/>
<path d="M0 0 C0.73748474 -0.00133942 1.47496948 -0.00267883 2.23480225 -0.00405884 C14.53076032 0.00077959 26.34649219 0.91261645 38.4375 3.25 C39.96086048 3.52776649 41.4842967 3.80511796 43.0078125 4.08203125 C53.17590409 5.98840409 53.17590409 5.98840409 54.4375 7.25 C54.52463831 8.95772358 54.54450007 10.66898649 54.53515625 12.37890625 C54.53032227 13.93061523 54.53032227 13.93061523 54.52539062 15.51367188 C54.51282227 17.1465918 54.51282227 17.1465918 54.5 18.8125 C54.49548828 19.90498047 54.49097656 20.99746094 54.48632812 22.12304688 C54.47449826 24.83208495 54.45801543 27.54101599 54.4375 30.25 C53.23599808 30.24000725 53.23599808 30.24000725 52.01022339 30.22981262 C44.44801253 30.16961002 36.88591848 30.12397928 29.3235302 30.09456348 C25.43596009 30.07893193 21.54858862 30.05773996 17.66113281 30.02368164 C13.90693341 29.99099799 10.15292464 29.97312811 6.3985939 29.96536827 C4.96890387 29.95984085 3.53922384 29.9490471 2.10961533 29.93280983 C0.10166416 29.91091841 -1.90648031 29.9097736 -3.91455078 29.90942383 C-5.05594513 29.90276199 -6.19733948 29.89610016 -7.37332153 29.88923645 C-11.04875583 30.30500582 -13.42151915 31.31844801 -16.5625 33.25 C-19.66150079 37.89850119 -18.93107454 42.6569342 -18.9375 48.125 C-18.96199219 49.21425781 -18.98648438 50.30351563 -19.01171875 51.42578125 C-19.0785869 57.73926781 -19.0785869 57.73926781 -16.6640625 63.4453125 C-12.64865007 66.89349195 -8.92410099 66.40082362 -3.85546875 66.42578125 C-2.05272315 66.44901435 -0.24998878 66.473133 1.55273438 66.49804688 C4.38508231 66.53288181 7.21702643 66.56234185 10.04956055 66.57592773 C24.38177099 66.65807161 38.41054697 66.74813998 49.4375 77.25 C59.4142523 87.68024104 60.78062951 99.12814591 60.69824219 113.03100586 C60.68754153 115.17916202 60.69817001 117.32647894 60.7109375 119.47460938 C60.72600647 132.31560645 59.2670205 143.13994441 50.6875 153.328125 C42.16937058 161.49133236 31.06477971 164.34500089 19.5546875 164.41796875 C18.58322281 164.42432091 18.58322281 164.42432091 17.59213257 164.43080139 C15.49885521 164.44066045 13.40579644 164.44072431 11.3125 164.4375 C10.5954187 164.43689575 9.8783374 164.4362915 9.13952637 164.43566895 C-9.67208394 164.39262659 -27.17392463 162.19040901 -45.5625 158.25 C-45.5625 150.33 -45.5625 142.41 -45.5625 134.25 C-33.40762086 134.25 -33.40762086 134.25 -28.08203125 134.73046875 C-19.97576818 135.35300675 -11.89215996 135.50625151 -3.76538086 135.54516602 C-2.07942377 135.55678428 -0.39350615 135.57738768 1.29223633 135.60668945 C14.60219046 136.34541345 14.60219046 136.34541345 26.4375 131.25 C29.34762158 126.78037607 28.76755685 121.963681 28.75 116.8125 C28.77416992 115.40000977 28.77416992 115.40000977 28.79882812 113.95898438 C28.89337173 107.02870929 28.89337173 107.02870929 25.4375 101.25 C20.80918634 99.30656493 16.50197405 98.94343276 11.546875 98.90625 C10.80221985 98.8916272 10.0575647 98.87700439 9.29034424 98.86193848 C6.92278361 98.81573794 4.55530016 98.78140319 2.1875 98.75 C-29.44968378 98.32660759 -29.44968378 98.32660759 -39.875 88.625 C-47.74192353 80.07468716 -50.87835152 69.621627 -50.86328125 58.1640625 C-50.86756638 57.42223724 -50.8718515 56.68041199 -50.87626648 55.91610718 C-50.88196817 54.35814426 -50.88254105 52.80015473 -50.87817383 51.2421875 C-50.87501682 48.88754821 -50.89851373 46.53417185 -50.92382812 44.1796875 C-50.98132117 30.80096714 -48.99725552 20.83606936 -40.07421875 10.53125 C-29.37895126 0.12791289 -13.92681947 0.01483832 0 0 Z " fill="#A90203" transform="translate(2671.5625,1415.75)"/>
<path d="M0 0 C0.33 0.66 0.66 1.32 1 2 C0.31005859 3.95410156 0.31005859 3.95410156 -0.8515625 6.390625 C-1.28331787 7.31053223 -1.71507324 8.23043945 -2.15991211 9.17822266 C-2.64339111 10.19190918 -3.12687012 11.2055957 -3.625 12.25 C-7.86470083 21.31981723 -11.97753238 30.42955299 -15.9375 39.625 C-16.47047443 40.86111242 -17.00351646 42.09719569 -17.53662109 43.33325195 C-18.39545812 45.32491902 -19.25413579 47.31665395 -20.11230469 49.30860901 C-24.30153398 59.0283547 -28.52830871 68.73182335 -32.75 78.4375 C-33.61557046 80.42797392 -34.48113033 82.41845245 -35.34667969 84.40893555 C-42.86188291 101.68973541 -50.39047593 118.96468585 -57.92333984 136.23779297 C-60.02881885 141.06586344 -62.13364033 145.89422039 -64.23828125 150.72265625 C-64.76512512 151.93133362 -64.76512512 151.93133362 -65.3026123 153.16442871 C-66.3684187 155.60961457 -67.43421196 158.05480614 -68.5 160.5 C-76.31585986 178.43160727 -76.31585986 178.43160727 -80.11050415 187.13284302 C-88.93810779 207.3748719 -97.75248078 227.62260342 -106.5534668 247.8762207 C-110.499902 256.95704841 -114.44966915 266.03637079 -118.4140625 275.109375 C-128.71736935 298.6941491 -138.88079146 322.33539421 -149 346 C-168.8 346 -188.6 346 -209 346 C-202.25170068 333.62811791 -202.25170068 333.62811791 -199.29296875 328.78515625 C-198.63296875 327.70169922 -197.97296875 326.61824219 -197.29296875 325.50195312 C-196.59116657 324.35545606 -195.88934307 323.20897204 -195.1875 322.0625 C-194.43983282 320.83675401 -193.69244322 319.61083867 -192.9453125 318.38476562 C-191.39868827 315.84716765 -189.85089371 313.31028939 -188.30224609 310.77392578 C-185.04186278 305.43203835 -181.79613311 300.081266 -178.55004883 294.73068237 C-176.79044917 291.8305238 -175.02999921 288.93088155 -173.26953125 286.03125 C-172.91988312 285.45531601 -172.57023499 284.87938202 -172.20999146 284.28599548 C-170.03575259 280.70492739 -167.86035253 277.12456716 -165.68417358 273.54467773 C-155.80496588 257.29477195 -155.80496588 257.29477195 -146 241 C-139.12269626 229.51013114 -132.16132155 218.0713634 -125.20556641 206.62890625 C-121.98740655 201.33454283 -118.77252507 196.03818925 -115.5574646 190.74194336 C-113.78845055 187.82787675 -112.01921376 184.91394537 -110.25 182 C-109.5416656 180.83333398 -108.83333227 179.66666731 -108.125 178.5 C-106.70833333 176.16666667 -105.29166667 173.83333333 -103.875 171.5 C-103.52440018 170.92254028 -103.17380035 170.34508057 -102.81257629 169.75012207 C-102.10399289 168.58304592 -101.39540525 167.41597236 -100.68681335 166.24890137 C-98.91977124 163.33852084 -97.15280216 160.42809603 -95.38598633 157.51757812 C-92.15333954 152.1925274 -88.92007959 146.86785284 -85.68421936 141.54475403 C-78.55061922 129.80964103 -71.42789798 118.06874213 -64.37451172 106.28515625 C-59.54304905 98.22122671 -54.65049933 90.19484616 -49.7578125 82.16796875 C-45.00844069 74.37583441 -40.2741972 66.57452301 -35.53955078 58.7734375 C-34.81803473 57.58463489 -34.0965178 56.3958328 -33.375 55.20703125 C-33.01598602 54.61548248 -32.65697205 54.02393372 -32.28707886 53.41445923 C-29.7138989 49.17502387 -27.1385775 44.93689391 -24.5625 40.69921875 C-16.33223604 27.15832544 -8.13194883 13.60025354 0 0 Z " fill="#FDFDFD" transform="translate(1832,896)"/>
<path d="M0 0 C10.89 0 21.78 0 33 0 C36.94136633 12.28778916 40.8269222 24.57278375 44.41162109 36.96875 C45.41113146 40.41934181 46.42416169 43.86594815 47.4375 47.3125 C47.64133301 48.00641846 47.84516602 48.70033691 48.05517578 49.4152832 C49.93508355 55.80361005 51.85137823 62.18085995 53.76928711 68.55786133 C55.36443109 73.86665996 56.94068512 79.180577 58.5 84.5 C59.10995801 86.57331018 59.72026489 88.64651748 60.33056641 90.71972656 C60.81111227 92.35659685 61.28972696 93.99403456 61.76708984 95.63183594 C62.56912571 98.38098005 63.3778434 101.12809189 64.1875 103.875 C64.56261719 105.16954102 64.56261719 105.16954102 64.9453125 106.49023438 C65.30302734 107.69776367 65.30302734 107.69776367 65.66796875 108.9296875 C65.87703857 109.64366699 66.0861084 110.35764648 66.30151367 111.09326172 C67.01896792 113.28265639 67.01896792 113.28265639 69 116 C72.1635358 106.81228432 75.16153997 97.61736756 77.75 88.25 C80.20633672 79.39866004 83.05531111 70.6983398 86 62 C89.16744237 52.63984473 92.16529269 43.26818914 94.80151367 33.74316406 C96.8113712 26.52682526 99.03475778 19.38601573 101.3125 12.25 C101.6626416 11.1468042 102.0127832 10.0436084 102.37353516 8.90698242 C102.86345947 7.382948 102.86345947 7.382948 103.36328125 5.828125 C103.65501221 4.9196582 103.94674316 4.01119141 104.24731445 3.07519531 C105 1 105 1 106 0 C108.3756852 -0.0883967 110.72208674 -0.11530305 113.09765625 -0.09765625 C114.16094398 -0.09553383 114.16094398 -0.09553383 115.24571228 -0.09336853 C117.51801712 -0.08775443 119.79022475 -0.07519963 122.0625 -0.0625 C123.59960796 -0.05748681 125.13671745 -0.05292359 126.67382812 -0.04882812 C130.44925642 -0.03778042 134.22461171 -0.02050641 138 0 C136.69162203 6.29912794 135.03755195 12.32604736 132.99755859 18.42382812 C132.7010994 19.32179108 132.4046402 20.21975403 132.09919739 21.14492798 C131.11971043 24.10840999 130.134056 27.06980222 129.1484375 30.03125 C128.44934615 32.14288945 127.75067542 34.25466819 127.05239868 36.36657715 C125.20465485 41.95166634 123.3518336 47.53505745 121.4977417 53.11804199 C118.59109875 61.87352369 115.69251816 70.63168048 112.79282379 79.38946533 C111.71161787 82.65419561 110.62959572 85.91865464 109.54754639 89.18310547 C105.80037941 100.4943028 102.07391233 111.81195373 98.37988281 123.140625 C98.00702715 124.28407127 97.63417149 125.42751755 97.25001717 126.60561371 C95.46143158 132.09341557 93.67566494 137.58212024 91.89315796 143.07189941 C91.25771183 145.02514683 90.62226471 146.97839392 89.98681641 148.93164062 C89.69720158 149.82633057 89.40758675 150.72102051 89.10919571 151.64282227 C88.84432232 152.45634155 88.57944893 153.26986084 88.30654907 154.10803223 C87.96213241 155.16956387 87.96213241 155.16956387 87.61075783 156.25254059 C87 158 87 158 86 160 C74.12 160 62.24 160 50 160 C41.03957666 133.52602195 41.03957666 133.52602195 38.0625 122.6875 C35.6779252 114.02058623 32.88167229 105.51171753 30 97 C26.86602903 87.74289767 23.91398865 78.47715629 21.328125 69.05078125 C19.1583883 61.27589141 16.58736309 53.64330907 14 46 C10.47259113 35.57704832 7.1761694 25.12568814 4.25390625 14.515625 C2.90486993 9.65741321 1.44881821 4.82939402 0 0 Z " fill="#A90102" transform="translate(1661,1418)"/>
<path d="M0 0 C11.88 0 23.76 0 36 0 C36.02505615 4.3715332 36.0501123 8.74306641 36.07592773 13.24707031 C36.15929136 27.66797798 36.24794194 42.08884952 36.33933926 56.5097084 C36.39463997 65.2556449 36.4481168 74.00158547 36.49731445 82.74755859 C36.54019489 90.36968674 36.58648264 97.99178523 36.63687855 105.61386752 C36.66344837 109.65045914 36.68830068 113.687045 36.70907402 117.72367096 C36.72867623 121.52226952 36.75283071 125.3208118 36.78049088 129.11935997 C36.78984233 130.51414402 36.79752444 131.90894042 36.80341911 133.30374336 C36.8117126 135.20726086 36.82657803 137.11074635 36.84178162 139.01422119 C36.84823417 140.07981388 36.85468672 141.14540657 36.8613348 142.24328995 C36.98289904 144.6600273 37.30446998 146.69265805 38 149 C42.41161221 149.84090283 46.61865572 150.14861117 51.10693359 150.20532227 C51.79055969 150.21522186 52.47418579 150.22512146 53.17852783 150.23532104 C55.41846355 150.26668763 57.65842042 150.29159419 59.8984375 150.31640625 C61.45928471 150.33699729 63.0201266 150.3579943 64.58096313 150.37937927 C68.67437421 150.43437805 72.76783375 150.4838845 76.86132812 150.53222656 C81.78071858 150.5914733 86.70002114 150.65757828 91.61933899 150.72252655 C99.0795053 150.82025653 106.53972993 150.90930349 114 151 C114 161.89 114 172.78 114 184 C103.9760183 184.06819273 93.95219454 184.1230541 83.92803192 184.15543652 C79.27175675 184.17099042 74.6156506 184.1920371 69.95947266 184.22631836 C65.45310339 184.2592832 60.94689511 184.27692991 56.44041443 184.28463173 C54.7343035 184.29010948 53.02819983 184.30080261 51.32215881 184.31719017 C35.02143541 184.46732151 19.46187551 184.25161161 7.1875 172.25 C1.81042498 164.26120282 -0.12810386 156.03049857 -0.12025452 146.47000122 C-0.12162918 145.17438766 -0.12300385 143.87877411 -0.12442017 142.54389954 C-0.12088169 141.12057472 -0.11724689 139.69725013 -0.11352539 138.27392578 C-0.11324313 136.7656708 -0.11340202 135.25741567 -0.1139679 133.74916077 C-0.11425434 129.66492348 -0.10838234 125.58071568 -0.10139394 121.49648523 C-0.09513493 117.22437344 -0.09455458 112.95226094 -0.09336853 108.68014526 C-0.09026273 100.59487324 -0.08205946 92.50961477 -0.07201904 84.42434871 C-0.06083459 75.21761514 -0.05534157 66.01088091 -0.05032361 56.80414224 C-0.03987622 37.86941892 -0.02154007 18.93471417 0 0 Z " fill="#38518A" transform="translate(2042,1714)"/>
<path d="M0 0 C38.94 0 77.88 0 118 0 C118 9.24 118 18.48 118 28 C103.48 28 88.96 28 74 28 C74 71.56 74 115.12 74 160 C63.77 160 53.54 160 43 160 C43 116.44 43 72.88 43 28 C28.81 28 14.62 28 0 28 C0 18.76 0 9.52 0 0 Z " fill="#A90102" transform="translate(2084,1418)"/>
<path d="M0 0 C11.88 0 23.76 0 36 0 C36.02254474 23.84296661 36.04097784 47.68592464 36.05181217 71.52889919 C36.05697571 82.59877846 36.0640195 93.66865066 36.07543945 104.73852539 C36.08538454 114.38331054 36.09185301 124.02809057 36.09408849 133.67288071 C36.0953959 138.78306561 36.09848364 143.89323585 36.10573006 149.00341606 C36.1124875 153.80742559 36.11461753 158.61141433 36.11310768 163.41542816 C36.11338413 165.18398463 36.11539088 166.95254175 36.11920547 168.72109413 C36.12413843 171.12487473 36.12299978 173.52857557 36.12025452 175.93235779 C36.12316736 176.64148848 36.1260802 177.35061918 36.12908131 178.08123869 C36.11412121 182.88587879 36.11412121 182.88587879 35 184 C23.45 184 11.9 184 0 184 C0 123.28 0 62.56 0 0 Z " fill="#39528B" transform="translate(2327,1714)"/>
<path d="M0 0 C45.88372093 0 45.88372093 0 53.75 7.6875 C62.79766933 19.62920497 62.35006225 35.40874091 62.31567383 49.6328125 C62.3125146 52.36238614 62.33603734 55.09087216 62.36132812 57.8203125 C62.41848772 73.42994043 60.33150328 85.94408303 51.875 99.375 C38.62197718 111.47558605 14.31470955 106 0 106 C0 71.02 0 36.04 0 0 Z " fill="#FEFDFD" transform="translate(1552,1445)"/>
<path d="M0 0 C0.66 0 1.32 0 2 0 C3.45776367 2.00585938 3.45776367 2.00585938 5.16796875 4.84375 C5.80605469 5.89304687 6.44414062 6.94234375 7.1015625 8.0234375 C7.796875 9.18229167 8.4921875 10.34114583 9.1875 11.5 C10.27651829 13.29641056 11.36817458 15.09120134 12.45986938 16.88598633 C13.20760247 18.11577841 13.95447915 19.34609157 14.70053101 20.5769043 C18.24408265 26.42003684 21.86496512 32.21338987 25.5 38 C32.1130073 48.55163023 38.64548863 59.1515644 45.1640625 69.76171875 C48.59712404 75.34877435 52.04491011 80.92654704 55.5 86.5 C58.95508989 92.07345296 62.40287596 97.65122565 65.8359375 103.23828125 C66.49859619 104.31658203 67.16125488 105.39488281 67.84399414 106.50585938 C69.19045358 108.69800346 70.53600454 110.89070583 71.88061523 113.08398438 C75.34273739 118.72142222 78.83559907 124.3363439 82.38671875 129.91796875 C83.08748535 131.02358154 83.78825195 132.12919434 84.51025391 133.26831055 C85.85596266 135.38740962 87.20828479 137.50232655 88.56787109 139.61254883 C89.1655127 140.55509521 89.7631543 141.4976416 90.37890625 142.46875 C90.9107251 143.29826172 91.44254395 144.12777344 91.99047852 144.98242188 C92.49019165 145.98112305 92.49019165 145.98112305 93 147 C92.67 147.66 92.34 148.32 92 149 C80.10184715 136.1835989 80.10184715 136.1835989 74.7734375 130.0234375 C72.54861908 127.48498829 70.27496681 124.99358224 68 122.5 C65.15475772 119.38092989 62.3280042 116.25244609 59.5625 113.0625 C56.13231424 109.11332633 52.58996482 105.26977695 49.04711914 101.42211914 C45.93400701 98.03537381 42.88747918 94.60093751 39.875 91.125 C37.45449925 88.38176582 34.97799358 85.69115432 32.5 83 C28.89987244 79.09018405 25.35582395 75.14133532 21.875 71.125 C18.98664408 67.85152996 16.02011939 64.64995808 13.06225586 61.43945312 C9.82389445 57.91791033 6.64918784 54.35045947 3.53515625 50.71875 C1.7629633 48.7346154 -0.10492845 46.86642036 -2 45 C-1.69707031 45.88558594 -1.39414063 46.77117188 -1.08203125 47.68359375 C2.83869318 59.27687429 6.34203779 70.95855091 9.58984375 82.7578125 C12.88816162 94.7226337 16.3940665 106.57983466 20.2253418 118.38549805 C22.28232046 124.7286462 24.22447583 131.07537348 26.01171875 137.5 C27.26916415 141.95324537 28.60205092 146.38212788 29.9375 150.8125 C36.83261804 173.73323808 36.83261804 173.73323808 39.5859375 183.73828125 C42.50935683 194.35247759 45.53898293 204.90205272 48.9375 215.375 C51.89940885 224.51606352 54.7858069 233.6757857 57.5625 242.875 C57.92142334 244.0407959 58.28034668 245.2065918 58.65014648 246.40771484 C58.97313721 247.48746582 59.29612793 248.5672168 59.62890625 249.6796875 C59.91838135 250.63601074 60.20785645 251.59233398 60.50610352 252.57763672 C61 255 61 255 60 258 C59.57928223 256.98317139 59.15856445 255.96634277 58.72509766 254.91870117 C48.29819357 229.72317904 37.80755027 204.5550259 27.26611328 179.40722656 C23.88248869 171.33453463 20.50341363 163.25993827 17.12399292 155.18548584 C15.24951476 150.70691264 13.3747425 146.22846255 11.5 141.75 C10.74999859 139.95833392 9.99999859 138.16666726 9.25 136.375 C8.87875 135.488125 8.5075 134.60125 8.125 133.6875 C7 131 5.875 128.3125 4.75 125.625 C4.37882553 124.73830627 4.00765106 123.85161255 3.62522888 122.93804932 C2.87446353 121.14455261 2.12370059 119.35105488 1.37294006 117.55755615 C-0.49033028 113.10638089 -2.35364127 108.65522265 -4.21704102 104.20410156 C-7.73196617 95.80784299 -11.24645983 87.41140447 -14.75961304 79.0144043 C-16.41909914 75.04803237 -18.07880376 71.08175189 -19.73852539 67.11547852 C-20.52965038 65.22473651 -21.32066829 63.3339497 -22.11157227 61.44311523 C-23.20822492 58.82133827 -24.30524653 56.19971596 -25.40234375 53.578125 C-25.72339584 52.81030701 -26.04444794 52.04248901 -26.37522888 51.25140381 C-26.67800247 50.52809875 -26.98077606 49.8047937 -27.29272461 49.05957031 C-27.7202301 48.03564178 -27.7202301 48.03564178 -28.15637207 46.99102783 C-28.72345274 45.65267313 -29.30238032 44.31928238 -29.89245605 42.99090576 C-32.00853138 38.21871346 -32.00853138 38.21871346 -31.9140625 35.796875 C-30.73266559 33.47447082 -29.27897346 32.02900223 -27.375 30.25 C-24.71193935 27.68574548 -22.15798922 25.11786675 -19.75 22.3125 C-16.03409012 17.98728388 -12.15726183 13.81941534 -8.26269531 9.65551758 C-5.9755946 7.19752003 -3.81916737 4.76614838 -1.76171875 2.10546875 C-1.18035156 1.41066406 -0.59898437 0.71585938 0 0 Z " fill="#FBFCFD" transform="translate(2234,853)"/>
<path d="M0 0 C6.64125 -0.061875 13.2825 -0.12375 20.125 -0.1875 C22.21086426 -0.21481201 24.29672852 -0.24212402 26.44580078 -0.27026367 C28.11229881 -0.27903139 29.77880329 -0.28667465 31.4453125 -0.29296875 C32.29988037 -0.30831665 33.15444824 -0.32366455 34.03491211 -0.33947754 C39.12761417 -0.34169755 42.57527075 0.19079143 47 3 C52.22245646 8.40897276 52.34036596 15.28589896 52.3125 22.375 C52.32861328 23.18710938 52.34472656 23.99921875 52.36132812 24.8359375 C52.36690551 31.79650838 51.15923234 37.05401901 47.02001953 42.70141602 C42.68710475 45.99926506 39.18901909 45.63499617 33.88671875 45.48828125 C33.02679321 45.48324585 32.16686768 45.47821045 31.28088379 45.47302246 C28.08274782 45.44695261 24.88508883 45.37714514 21.6875 45.3125 C10.9521875 45.1578125 10.9521875 45.1578125 0 45 C0 30.15 0 15.3 0 0 Z " fill="#FEFDFD" transform="translate(2395,1445)"/>
<path d="M0 0 C0.96230443 3.10665885 0.99067373 5.4121887 0.51855469 8.61889648 C0.38801697 9.53182968 0.25747925 10.44476288 0.12298584 11.38536072 C-0.10031403 12.86329857 -0.10031403 12.86329857 -0.328125 14.37109375 C-0.47779724 15.40323502 -0.62746948 16.43537628 -0.78167725 17.49879456 C-1.26389673 20.81279917 -1.75672396 24.1251249 -2.25 27.4375 C-2.56711969 29.60210914 -2.88353306 31.76682189 -3.19921875 33.93164062 C-3.79539232 38.01555945 -4.39631313 42.0987272 -5.00097656 46.18139648 C-6.35905196 55.45062617 -7.67513784 64.72596485 -9 74 C-24.18 74 -39.36 74 -55 74 C-52.99124356 69.98248712 -50.57933914 66.61412515 -47.875 63.0625 C-47.35510498 62.37446289 -46.83520996 61.68642578 -46.29956055 60.97753906 C-44.53728424 58.6484397 -42.76934056 56.32373702 -41 54 C-40.34499512 53.13938965 -39.68999023 52.2787793 -39.01513672 51.39208984 C-36.24988927 47.76019185 -33.48339506 44.12925193 -30.71435547 40.50024414 C-26.61686237 35.12933851 -22.54702578 29.74005016 -18.50390625 24.328125 C-12.39094202 16.17750602 -6.18117561 8.09892205 0 0 Z " fill="#FAFBFC" transform="translate(1771,1168)"/>
<path d="M0 0 C2 1 2 1 2.7902832 2.87915039 C3.16672974 4.10106079 3.16672974 4.10106079 3.55078125 5.34765625 C3.83453613 6.25499512 4.11829102 7.16233398 4.41064453 8.09716797 C4.70825684 9.07572754 5.00586914 10.05428711 5.3125 11.0625 C5.62300293 12.06168457 5.93350586 13.06086914 6.25341797 14.09033203 C6.88223282 16.11571967 7.50790274 18.14208647 8.13037109 20.16943359 C9.08280519 23.26952367 10.05114349 26.36434901 11.0234375 29.45825195 C11.619208 31.35654505 12.21001966 33.25639213 12.80078125 35.15625 C13.66366228 37.93015659 14.53818999 40.70015712 15.41796875 43.46875 C15.65112793 44.20561035 15.88428711 44.9424707 16.12451172 45.70166016 C16.57309351 47.11872016 17.02383702 48.53509822 17.47705078 49.95068359 C19 54.77519988 19 54.77519988 19 57 C6.79 57 -5.42 57 -18 57 C-17.33257564 52.32802949 -16.799643 48.90562741 -15.32592773 44.61547852 C-14.98565048 43.61496964 -14.64537323 42.61446075 -14.29478455 41.58363342 C-13.92809158 40.52607346 -13.56139862 39.46851349 -13.18359375 38.37890625 C-12.80767593 37.27900864 -12.43175812 36.17911102 -12.04444885 35.04588318 C-10.84794768 31.54939686 -9.64285658 28.05594221 -8.4375 24.5625 C-7.62247744 22.18574206 -6.80801798 19.80879096 -5.99414062 17.43164062 C-4.00261116 11.61884022 -2.00402963 5.80850188 0 0 Z " fill="#FBF4F4" transform="translate(1435,1459)"/>
<path d="M0 0 C1 2 1 2 0.44262695 3.77172852 C-0.58592907 6.04276127 -1.62513648 8.30704886 -2.6875 10.5625 C-3.04005859 11.35591797 -3.39261719 12.14933594 -3.75585938 12.96679688 C-4.28469727 14.09891602 -4.28469727 14.09891602 -4.82421875 15.25390625 C-5.14479248 15.94814697 -5.46536621 16.6423877 -5.7956543 17.35766602 C-7 19 -7 19 -9.13598633 19.73413086 C-9.75111084 19.82186768 -10.36623535 19.90960449 -11 20 C-9.36047417 15.3606824 -6.93128948 11.36144142 -4.375 7.1875 C-3.95476562 6.49462891 -3.53453125 5.80175781 -3.1015625 5.08789062 C-2.0710533 3.38989252 -1.03598319 1.69466386 0 0 Z " fill="#DADFEA" transform="translate(1832,896)"/>
<path d="M0 0 C1.85486952 2.78230428 2.72462112 4.84363607 3.6875 8 C3.95949219 8.86625 4.23148438 9.7325 4.51171875 10.625 C5 13 5 13 4 16 C3.1319092 14.08959948 2.28098217 12.17139263 1.4375 10.25 C0.96183594 9.18265625 0.48617187 8.1153125 -0.00390625 7.015625 C-0.9946154 4.01630163 -1.16161779 2.86578759 0 0 Z " fill="#CBD1E1" transform="translate(2290,1095)"/>
</svg>